<mxfile host="app.diagrams.net" modified="2022-05-16T07:25:23.626Z" agent="5.0 (Macintosh; Intel Mac OS X 10_15_7) AppleWebKit/537.36 (KHTML, like Gecko) Chrome/101.0.4951.54 Safari/537.36" etag="U_ib-JNBgJs8yaYrLfEr" version="18.0.5" type="github">
  <diagram id="C5RBs43oDa-KdzZeNtuy" name="Page-1">
    <mxGraphModel dx="2617" dy="2175" grid="1" gridSize="10" guides="1" tooltips="1" connect="1" arrows="1" fold="1" page="1" pageScale="1" pageWidth="827" pageHeight="1169" math="0" shadow="0">
      <root>
        <mxCell id="WIyWlLk6GJQsqaUBKTNV-0" />
        <mxCell id="WIyWlLk6GJQsqaUBKTNV-1" parent="WIyWlLk6GJQsqaUBKTNV-0" />
        <mxCell id="qgFq1bfBtIM3UvwjNpeC-4" value="" style="edgeStyle=orthogonalEdgeStyle;rounded=0;orthogonalLoop=1;jettySize=auto;html=1;" edge="1" parent="WIyWlLk6GJQsqaUBKTNV-1" source="qgFq1bfBtIM3UvwjNpeC-0" target="qgFq1bfBtIM3UvwjNpeC-3">
          <mxGeometry relative="1" as="geometry" />
        </mxCell>
        <mxCell id="qgFq1bfBtIM3UvwjNpeC-28" value="" style="edgeStyle=orthogonalEdgeStyle;rounded=0;orthogonalLoop=1;jettySize=auto;html=1;" edge="1" parent="WIyWlLk6GJQsqaUBKTNV-1" source="qgFq1bfBtIM3UvwjNpeC-0" target="qgFq1bfBtIM3UvwjNpeC-27">
          <mxGeometry relative="1" as="geometry" />
        </mxCell>
        <mxCell id="qgFq1bfBtIM3UvwjNpeC-0" value="&lt;pre style=&quot;box-sizing: border-box; font-family: ui-monospace, SFMono-Regular, &amp;quot;SF Mono&amp;quot;, Menlo, Consolas, &amp;quot;Liberation Mono&amp;quot;, monospace; font-size: 13.6px; margin-top: 0px; margin-bottom: 16px; overflow-wrap: normal; padding: 16px; overflow: auto; line-height: 1.45; background-color: var(--color-canvas-subtle); border-radius: 6px; color: rgb(36, 41, 47); text-align: start;&quot; class=&quot;notranslate&quot;&gt;&lt;pre style=&quot;box-sizing: border-box; font-family: ui-monospace, SFMono-Regular, &amp;quot;SF Mono&amp;quot;, Menlo, Consolas, &amp;quot;Liberation Mono&amp;quot;, monospace; margin-top: 0px; margin-bottom: 16px; overflow-wrap: normal; padding: 16px; overflow: auto; line-height: 1.45; background-color: var(--color-canvas-subtle); border-radius: 6px;&quot; class=&quot;notranslate&quot;&gt;&lt;code style=&quot;box-sizing: border-box; font-family: ui-monospace, SFMono-Regular, &amp;quot;SF Mono&amp;quot;, Menlo, Consolas, &amp;quot;Liberation Mono&amp;quot;, monospace; padding: 0px; margin: 0px; background: transparent; border-radius: 6px; word-break: normal; border: 0px; display: inline; overflow: visible; line-height: 1.25; overflow-wrap: normal;&quot; class=&quot;notranslate&quot;&gt;articleListPage.blade.php&lt;/code&gt;&lt;/pre&gt;&lt;/pre&gt;" style="rounded=1;whiteSpace=wrap;html=1;fillColor=#f8cecc;strokeColor=#b85450;" vertex="1" parent="WIyWlLk6GJQsqaUBKTNV-1">
          <mxGeometry x="20" y="-50" width="257" height="60" as="geometry" />
        </mxCell>
        <mxCell id="qgFq1bfBtIM3UvwjNpeC-6" value="" style="edgeStyle=orthogonalEdgeStyle;rounded=0;orthogonalLoop=1;jettySize=auto;html=1;entryX=0;entryY=0.5;entryDx=0;entryDy=0;exitX=0;exitY=0.5;exitDx=0;exitDy=0;" edge="1" parent="WIyWlLk6GJQsqaUBKTNV-1" source="qgFq1bfBtIM3UvwjNpeC-3" target="qgFq1bfBtIM3UvwjNpeC-24">
          <mxGeometry relative="1" as="geometry">
            <mxPoint x="510" y="260" as="targetPoint" />
            <Array as="points">
              <mxPoint x="390" y="150" />
              <mxPoint x="390" y="590" />
            </Array>
          </mxGeometry>
        </mxCell>
        <mxCell id="qgFq1bfBtIM3UvwjNpeC-11" value="" style="edgeStyle=orthogonalEdgeStyle;rounded=0;orthogonalLoop=1;jettySize=auto;html=1;" edge="1" parent="WIyWlLk6GJQsqaUBKTNV-1" source="qgFq1bfBtIM3UvwjNpeC-3" target="qgFq1bfBtIM3UvwjNpeC-10">
          <mxGeometry relative="1" as="geometry" />
        </mxCell>
        <mxCell id="qgFq1bfBtIM3UvwjNpeC-3" value="Login Check" style="ellipse;whiteSpace=wrap;html=1;rounded=1;" vertex="1" parent="WIyWlLk6GJQsqaUBKTNV-1">
          <mxGeometry x="600" y="120" width="120" height="60" as="geometry" />
        </mxCell>
        <mxCell id="qgFq1bfBtIM3UvwjNpeC-13" value="" style="edgeStyle=orthogonalEdgeStyle;rounded=0;orthogonalLoop=1;jettySize=auto;html=1;" edge="1" parent="WIyWlLk6GJQsqaUBKTNV-1" source="qgFq1bfBtIM3UvwjNpeC-10" target="qgFq1bfBtIM3UvwjNpeC-12">
          <mxGeometry relative="1" as="geometry" />
        </mxCell>
        <mxCell id="qgFq1bfBtIM3UvwjNpeC-14" style="edgeStyle=orthogonalEdgeStyle;rounded=0;orthogonalLoop=1;jettySize=auto;html=1;" edge="1" parent="WIyWlLk6GJQsqaUBKTNV-1" source="qgFq1bfBtIM3UvwjNpeC-10">
          <mxGeometry relative="1" as="geometry">
            <mxPoint x="750" y="340" as="targetPoint" />
          </mxGeometry>
        </mxCell>
        <mxCell id="qgFq1bfBtIM3UvwjNpeC-16" value="" style="edgeStyle=orthogonalEdgeStyle;rounded=0;orthogonalLoop=1;jettySize=auto;html=1;" edge="1" parent="WIyWlLk6GJQsqaUBKTNV-1" source="qgFq1bfBtIM3UvwjNpeC-10" target="qgFq1bfBtIM3UvwjNpeC-15">
          <mxGeometry relative="1" as="geometry" />
        </mxCell>
        <mxCell id="qgFq1bfBtIM3UvwjNpeC-10" value="Account Check" style="ellipse;whiteSpace=wrap;html=1;rounded=1;" vertex="1" parent="WIyWlLk6GJQsqaUBKTNV-1">
          <mxGeometry x="690" y="260" width="120" height="60" as="geometry" />
        </mxCell>
        <mxCell id="qgFq1bfBtIM3UvwjNpeC-25" style="edgeStyle=orthogonalEdgeStyle;rounded=0;orthogonalLoop=1;jettySize=auto;html=1;" edge="1" parent="WIyWlLk6GJQsqaUBKTNV-1" source="qgFq1bfBtIM3UvwjNpeC-12" target="qgFq1bfBtIM3UvwjNpeC-24">
          <mxGeometry relative="1" as="geometry" />
        </mxCell>
        <mxCell id="qgFq1bfBtIM3UvwjNpeC-35" style="edgeStyle=orthogonalEdgeStyle;rounded=0;orthogonalLoop=1;jettySize=auto;html=1;" edge="1" parent="WIyWlLk6GJQsqaUBKTNV-1" source="qgFq1bfBtIM3UvwjNpeC-12" target="qgFq1bfBtIM3UvwjNpeC-15">
          <mxGeometry relative="1" as="geometry" />
        </mxCell>
        <mxCell id="qgFq1bfBtIM3UvwjNpeC-12" value="&lt;pre style=&quot;box-sizing: border-box; font-family: ui-monospace, SFMono-Regular, &amp;quot;SF Mono&amp;quot;, Menlo, Consolas, &amp;quot;Liberation Mono&amp;quot;, monospace; font-size: 13.6px; margin-top: 0px; margin-bottom: 16px; overflow-wrap: normal; padding: 16px; overflow: auto; line-height: 1.45; background-color: var(--color-canvas-subtle); border-radius: 6px; color: rgb(36, 41, 47); text-align: start;&quot; class=&quot;notranslate&quot;&gt;&lt;pre style=&quot;box-sizing: border-box; font-family: ui-monospace, SFMono-Regular, &amp;quot;SF Mono&amp;quot;, Menlo, Consolas, &amp;quot;Liberation Mono&amp;quot;, monospace; margin-top: 0px; margin-bottom: 16px; overflow-wrap: normal; padding: 16px; overflow: auto; line-height: 1.45; background-color: var(--color-canvas-subtle); border-radius: 6px;&quot; class=&quot;notranslate&quot;&gt;&lt;code style=&quot;box-sizing: border-box; font-family: ui-monospace, SFMono-Regular, &amp;quot;SF Mono&amp;quot;, Menlo, Consolas, &amp;quot;Liberation Mono&amp;quot;, monospace; padding: 0px; margin: 0px; background: transparent; border-radius: 6px; word-break: normal; border: 0px; display: inline; overflow: visible; line-height: inherit; overflow-wrap: normal;&quot; class=&quot;notranslate&quot;&gt;login.blade.php&lt;/code&gt;&lt;/pre&gt;&lt;/pre&gt;" style="whiteSpace=wrap;html=1;rounded=1;fillColor=#f5f5f5;fontColor=#333333;strokeColor=#666666;" vertex="1" parent="WIyWlLk6GJQsqaUBKTNV-1">
          <mxGeometry x="460" y="410" width="270" height="60" as="geometry" />
        </mxCell>
        <mxCell id="qgFq1bfBtIM3UvwjNpeC-26" style="edgeStyle=orthogonalEdgeStyle;rounded=0;orthogonalLoop=1;jettySize=auto;html=1;" edge="1" parent="WIyWlLk6GJQsqaUBKTNV-1" source="qgFq1bfBtIM3UvwjNpeC-15" target="qgFq1bfBtIM3UvwjNpeC-24">
          <mxGeometry relative="1" as="geometry" />
        </mxCell>
        <mxCell id="qgFq1bfBtIM3UvwjNpeC-36" style="edgeStyle=orthogonalEdgeStyle;rounded=0;orthogonalLoop=1;jettySize=auto;html=1;entryX=1;entryY=0.5;entryDx=0;entryDy=0;" edge="1" parent="WIyWlLk6GJQsqaUBKTNV-1" source="qgFq1bfBtIM3UvwjNpeC-15" target="qgFq1bfBtIM3UvwjNpeC-12">
          <mxGeometry relative="1" as="geometry" />
        </mxCell>
        <mxCell id="qgFq1bfBtIM3UvwjNpeC-15" value="&lt;pre style=&quot;box-sizing: border-box; font-family: ui-monospace, SFMono-Regular, &amp;quot;SF Mono&amp;quot;, Menlo, Consolas, &amp;quot;Liberation Mono&amp;quot;, monospace; font-size: 13.6px; margin-top: 0px; margin-bottom: 16px; overflow-wrap: normal; padding: 16px; overflow: auto; line-height: 1.45; background-color: var(--color-canvas-subtle); border-radius: 6px; color: rgb(36, 41, 47); text-align: start;&quot; class=&quot;notranslate&quot;&gt;&lt;code style=&quot;box-sizing: border-box; font-family: ui-monospace, SFMono-Regular, &amp;quot;SF Mono&amp;quot;, Menlo, Consolas, &amp;quot;Liberation Mono&amp;quot;, monospace; padding: 0px; margin: 0px; background: transparent; border-radius: 6px; word-break: normal; border: 0px; display: inline; overflow: visible; line-height: inherit; overflow-wrap: normal;&quot; class=&quot;notranslate&quot;&gt;register.blade.php&lt;/code&gt;&lt;/pre&gt;" style="whiteSpace=wrap;html=1;rounded=1;fillColor=#e1d5e7;strokeColor=#9673a6;" vertex="1" parent="WIyWlLk6GJQsqaUBKTNV-1">
          <mxGeometry x="800" y="410" width="240" height="60" as="geometry" />
        </mxCell>
        <mxCell id="qgFq1bfBtIM3UvwjNpeC-43" style="edgeStyle=orthogonalEdgeStyle;rounded=0;orthogonalLoop=1;jettySize=auto;html=1;entryX=1;entryY=0.5;entryDx=0;entryDy=0;" edge="1" parent="WIyWlLk6GJQsqaUBKTNV-1" source="qgFq1bfBtIM3UvwjNpeC-24" target="qgFq1bfBtIM3UvwjNpeC-27">
          <mxGeometry relative="1" as="geometry">
            <mxPoint x="770" y="831" as="targetPoint" />
            <Array as="points">
              <mxPoint x="770" y="710" />
              <mxPoint x="320" y="710" />
              <mxPoint x="320" y="290" />
            </Array>
          </mxGeometry>
        </mxCell>
        <mxCell id="qgFq1bfBtIM3UvwjNpeC-24" value="&lt;pre style=&quot;box-sizing: border-box; font-family: ui-monospace, SFMono-Regular, &amp;quot;SF Mono&amp;quot;, Menlo, Consolas, &amp;quot;Liberation Mono&amp;quot;, monospace; font-size: 13.6px; margin-top: 0px; margin-bottom: 16px; overflow-wrap: normal; padding: 16px; overflow: auto; line-height: 1.45; background-color: var(--color-canvas-subtle); border-radius: 6px; color: rgb(36, 41, 47); text-align: start;&quot; class=&quot;notranslate&quot;&gt;&lt;pre style=&quot;box-sizing: border-box; font-family: ui-monospace, SFMono-Regular, &amp;quot;SF Mono&amp;quot;, Menlo, Consolas, &amp;quot;Liberation Mono&amp;quot;, monospace; margin-top: 0px; margin-bottom: 16px; overflow-wrap: normal; padding: 16px; overflow: auto; line-height: 1.45; background-color: var(--color-canvas-subtle); border-radius: 6px;&quot; class=&quot;notranslate&quot;&gt;&lt;code style=&quot;box-sizing: border-box; font-family: ui-monospace, SFMono-Regular, &amp;quot;SF Mono&amp;quot;, Menlo, Consolas, &amp;quot;Liberation Mono&amp;quot;, monospace; padding: 0px; margin: 0px; background: transparent; border-radius: 6px; word-break: normal; border: 0px; display: inline; overflow: visible; line-height: inherit; overflow-wrap: normal;&quot; class=&quot;notranslate&quot;&gt;articleNewPage.blade.php&lt;/code&gt;&lt;/pre&gt;&lt;/pre&gt;" style="whiteSpace=wrap;html=1;rounded=1;fillColor=#ffe6cc;strokeColor=#d79b00;" vertex="1" parent="WIyWlLk6GJQsqaUBKTNV-1">
          <mxGeometry x="640" y="560" width="260" height="60" as="geometry" />
        </mxCell>
        <mxCell id="qgFq1bfBtIM3UvwjNpeC-29" style="edgeStyle=orthogonalEdgeStyle;rounded=0;orthogonalLoop=1;jettySize=auto;html=1;" edge="1" parent="WIyWlLk6GJQsqaUBKTNV-1" source="qgFq1bfBtIM3UvwjNpeC-27" target="qgFq1bfBtIM3UvwjNpeC-30">
          <mxGeometry relative="1" as="geometry">
            <mxPoint x="148.5" y="460" as="targetPoint" />
          </mxGeometry>
        </mxCell>
        <mxCell id="qgFq1bfBtIM3UvwjNpeC-44" style="edgeStyle=orthogonalEdgeStyle;rounded=0;orthogonalLoop=1;jettySize=auto;html=1;entryX=0.5;entryY=1;entryDx=0;entryDy=0;" edge="1" parent="WIyWlLk6GJQsqaUBKTNV-1" source="qgFq1bfBtIM3UvwjNpeC-27" target="qgFq1bfBtIM3UvwjNpeC-0">
          <mxGeometry relative="1" as="geometry" />
        </mxCell>
        <mxCell id="qgFq1bfBtIM3UvwjNpeC-27" value="&lt;pre style=&quot;box-sizing: border-box; font-family: ui-monospace, SFMono-Regular, &amp;quot;SF Mono&amp;quot;, Menlo, Consolas, &amp;quot;Liberation Mono&amp;quot;, monospace; font-size: 13.6px; margin-top: 0px; margin-bottom: 16px; overflow-wrap: normal; padding: 16px; overflow: auto; line-height: 1.45; background-color: var(--color-canvas-subtle); border-radius: 6px; color: rgb(36, 41, 47); text-align: start;&quot; class=&quot;notranslate&quot;&gt;&lt;code style=&quot;box-sizing: border-box; font-family: ui-monospace, SFMono-Regular, &amp;quot;SF Mono&amp;quot;, Menlo, Consolas, &amp;quot;Liberation Mono&amp;quot;, monospace; padding: 0px; margin: 0px; background: transparent; border-radius: 6px; word-break: normal; border: 0px; display: inline; overflow: visible; line-height: inherit; overflow-wrap: normal;&quot; class=&quot;notranslate&quot;&gt;articleShowPage.blade.php&lt;/code&gt;&lt;/pre&gt;" style="whiteSpace=wrap;html=1;fillColor=#d5e8d4;strokeColor=#82b366;rounded=1;" vertex="1" parent="WIyWlLk6GJQsqaUBKTNV-1">
          <mxGeometry x="28.5" y="260" width="240" height="60" as="geometry" />
        </mxCell>
        <mxCell id="qgFq1bfBtIM3UvwjNpeC-46" value="" style="edgeStyle=orthogonalEdgeStyle;rounded=0;orthogonalLoop=1;jettySize=auto;html=1;entryX=0.5;entryY=1;entryDx=0;entryDy=0;" edge="1" parent="WIyWlLk6GJQsqaUBKTNV-1" source="qgFq1bfBtIM3UvwjNpeC-30" target="qgFq1bfBtIM3UvwjNpeC-27">
          <mxGeometry relative="1" as="geometry">
            <mxPoint x="-230" y="620" as="targetPoint" />
            <Array as="points">
              <mxPoint x="-240" y="340" />
              <mxPoint x="149" y="340" />
            </Array>
          </mxGeometry>
        </mxCell>
        <mxCell id="qgFq1bfBtIM3UvwjNpeC-30" value="&lt;pre style=&quot;box-sizing: border-box; font-family: ui-monospace, SFMono-Regular, &amp;quot;SF Mono&amp;quot;, Menlo, Consolas, &amp;quot;Liberation Mono&amp;quot;, monospace; font-size: 13.6px; margin-top: 0px; margin-bottom: 16px; overflow-wrap: normal; padding: 16px; overflow: auto; line-height: 1.45; background-color: var(--color-canvas-subtle); border-radius: 6px; color: rgb(36, 41, 47); text-align: start;&quot; class=&quot;notranslate&quot;&gt;&lt;code style=&quot;box-sizing: border-box; font-family: ui-monospace, SFMono-Regular, &amp;quot;SF Mono&amp;quot;, Menlo, Consolas, &amp;quot;Liberation Mono&amp;quot;, monospace; padding: 0px; margin: 0px; background: transparent; border-radius: 6px; word-break: normal; border: 0px; display: inline; overflow: visible; line-height: inherit; overflow-wrap: normal;&quot; class=&quot;notranslate&quot;&gt;articleEditPage.blade.php&lt;/code&gt;&lt;/pre&gt;" style="rounded=1;whiteSpace=wrap;html=1;fillColor=#dae8fc;strokeColor=#6c8ebf;" vertex="1" parent="WIyWlLk6GJQsqaUBKTNV-1">
          <mxGeometry x="-370" y="260" width="250" height="60" as="geometry" />
        </mxCell>
        <mxCell id="qgFq1bfBtIM3UvwjNpeC-37" value="Login user" style="text;html=1;align=center;verticalAlign=middle;resizable=0;points=[];autosize=1;strokeColor=none;fillColor=none;" vertex="1" parent="WIyWlLk6GJQsqaUBKTNV-1">
          <mxGeometry x="480" y="120" width="70" height="20" as="geometry" />
        </mxCell>
        <mxCell id="qgFq1bfBtIM3UvwjNpeC-38" value="Not login" style="text;html=1;align=center;verticalAlign=middle;resizable=0;points=[];autosize=1;strokeColor=none;fillColor=none;" vertex="1" parent="WIyWlLk6GJQsqaUBKTNV-1">
          <mxGeometry x="680" y="200" width="60" height="20" as="geometry" />
        </mxCell>
        <mxCell id="qgFq1bfBtIM3UvwjNpeC-39" value="Account" style="text;html=1;align=center;verticalAlign=middle;resizable=0;points=[];autosize=1;strokeColor=none;fillColor=none;" vertex="1" parent="WIyWlLk6GJQsqaUBKTNV-1">
          <mxGeometry x="640" y="340" width="60" height="20" as="geometry" />
        </mxCell>
        <mxCell id="qgFq1bfBtIM3UvwjNpeC-40" value="No account" style="text;html=1;align=center;verticalAlign=middle;resizable=0;points=[];autosize=1;strokeColor=none;fillColor=none;" vertex="1" parent="WIyWlLk6GJQsqaUBKTNV-1">
          <mxGeometry x="800" y="340" width="80" height="20" as="geometry" />
        </mxCell>
        <mxCell id="qgFq1bfBtIM3UvwjNpeC-41" value="Same user_id" style="text;html=1;align=center;verticalAlign=middle;resizable=0;points=[];autosize=1;strokeColor=none;fillColor=none;" vertex="1" parent="WIyWlLk6GJQsqaUBKTNV-1">
          <mxGeometry x="-90" y="260" width="90" height="20" as="geometry" />
        </mxCell>
      </root>
    </mxGraphModel>
  </diagram>
</mxfile>
